<?xml version="1.0" encoding="UTF-8" standalone="no"?>
<svg
   xmlns:dc="http://purl.org/dc/elements/1.1/"
   xmlns:cc="http://creativecommons.org/ns#"
   xmlns:rdf="http://www.w3.org/1999/02/22-rdf-syntax-ns#"
   xmlns:svg="http://www.w3.org/2000/svg"
   xmlns="http://www.w3.org/2000/svg"
   xmlns:sodipodi="http://sodipodi.sourceforge.net/DTD/sodipodi-0.dtd"
   xmlns:inkscape="http://www.inkscape.org/namespaces/inkscape"
   height="32"
   width="32"
   version="1"
   viewBox="0 0 41 41"
   id="svg4"
   sodipodi:docname="app.svg"
   inkscape:version="0.92.1 r">
  <metadata
     id="metadata10">
    <rdf:RDF>
      <cc:Work
         rdf:about="">
        <dc:format>image/svg+xml</dc:format>
        <dc:type
           rdf:resource="http://purl.org/dc/dcmitype/StillImage" />
      </cc:Work>
    </rdf:RDF>
  </metadata>
  <defs
     id="defs8" />
  <sodipodi:namedview
     pagecolor="#ffffff"
     bordercolor="#666666"
     borderopacity="1"
     objecttolerance="10"
     gridtolerance="10"
     guidetolerance="10"
     inkscape:pageopacity="0"
     inkscape:pageshadow="2"
     inkscape:window-width="789"
     inkscape:window-height="480"
     id="namedview6"
     showgrid="false"
     inkscape:zoom="7.375"
     inkscape:cx="-8.3389831"
     inkscape:cy="16"
     inkscape:window-x="0"
     inkscape:window-y="27"
     inkscape:window-maximized="0"
     inkscape:current-layer="svg4" />
  <path d="M40.5 14.1c-.1-.1-1.2-.5-2.898-1-.102 0-.202-.1-.202-.2C34.5 6.5 28 2 20.5 2S6.6 6.5 3.7 12.9c0 .1-.1.1-.2.2-1.7.6-2.8 1-2.9 1l-.6.3v12.1l.6.2c.1 0 1.1.399 2.7.899.1 0 .2.101.2.199C6.3 34.4 12.9 39 20.5 39c7.602 0 14.102-4.6 16.9-11.1 0-.102.1-.102.199-.2 1.699-.601 2.699-1 2.801-1l.6-.3V14.3l-.5-.2zM6.701 11.5C9.7 7 14.8 4 20.5 4c5.8 0 10.9 3 13.8 7.5.2.3-.1.6-.399.5-3.799-1-8.799-2-13.6-2-4.7 0-9.5 1-13.2 2-.3.1-.5-.2-.4-.5zM25.1 20.3L18.7 24c-.3.2-.7 0-.7-.5v-7.4c0-.4.4-.6.7-.4l6.399 3.8c.301.1.301.6.001.8zm9.4 8.901A16.421 16.421 0 0 1 20.5 37c-5.9 0-11.1-3.1-14-7.898-.2-.302.1-.602.4-.5 3.9 1 8.9 2.1 13.6 2.1 5 0 9.9-1 13.602-2 .298-.1.5.198.398.499z"
      display="block"
     fill="#fff"
     id="path2"
     style="fill:#ffffff"
  />
</svg>
